# xmcd CD database file
#
# Track frame offsets:
#	182
#	9490
#	19272
#	28642
#	39395
#	52012
#	62290
#	76402
#	87337
#	99660
#	114032
#	126392
#	137805
#	147535
#	158522
#	168382
#	176262
#	186217
#	199015
#	210310
#	219747
#	232482
#
# Disc length: 3260 seconds
#
# Revision: 4
# Processed by: cddbd v1.5.2PL0 Copyright (c) Steve Scherf et al.
# Submitted via: CDex 1.70beta2
#
DISCID=2f0cba16
DTITLE=Jim Reeves - Country Classics - CD 3 - (The magic of Jim Reeves)
DYEAR=1962
DGENRE=Country
TTITLE0=I Won't Forget You - (1962)
TTITLE1=When Two Worlds Collide - (1962)
TTITLE2=There's A Heartache Following Me - (1963)
TTITLE3=You're The Only Good Thing (That's Happened To Me) - (1961)
TTITLE4=Not Until The Next Time - (1966)
TTITLE5=Is It Really Over - (1965)
TTITLE6=This Is It - (1964)
TTITLE7=Angels Don't Lie - (1970)
TTITLE8=Nobody's Fool - (1969)
TTITLE9=Guilty - (1963)
TTITLE10=A Letter To My Heart - (1962)
TTITLE11=Adios Amigo - (1963)
TTITLE12=I Won't Come In While He's There - (1966)
TTITLE13=That's When I See The Blues (In Your Pretty Brown Eyes) - (1964)
TTITLE14=It Hurts So Much To See You Go - (1964)
TTITLE15=Trying To Forget - (1967)
TTITLE16=But You Love Me, Daddy - (1968)
TTITLE17=Four Walls - (1957)
TTITLE18=According To My Heart - (1956)
TTITLE19=Billy Bayou - (1958)
TTITLE20=Bimbo - (1953)
TTITLE21=Mexican Joe - (1953)
EXTD=YEAR: 1962
EXTT0=
EXTT1=
EXTT2=
EXTT3=
EXTT4=
EXTT5=
EXTT6=
EXTT7=
EXTT8=
EXTT9=
EXTT10=
EXTT11=
EXTT12=
EXTT13=
EXTT14=
EXTT15=
EXTT16=
EXTT17=
EXTT18=
EXTT19=
EXTT20=
EXTT21=
PLAYORDER=
